<svg xmlns="http://www.w3.org/2000/svg" viewBox="0 0 64 64">
  <!-- Body -->
  <ellipse cx="32" cy="38" rx="16" ry="14" fill="#4f46e5"/>
  <!-- Head -->
  <circle cx="32" cy="22" r="10" fill="#4f46e5"/>
  <!-- Eyes -->
  <circle cx="28" cy="20" r="2.5" fill="white"/>
  <circle cx="36" cy="20" r="2.5" fill="white"/>
  <circle cx="28.8" cy="20" r="1.2" fill="#1e1b4b"/>
  <circle cx="36.8" cy="20" r="1.2" fill="#1e1b4b"/>
  <!-- Smile -->
  <path d="M27 25 Q32 29 37 25" stroke="white" stroke-width="1.5" fill="none" stroke-linecap="round"/>
  <!-- Legs -->
  <line x1="18" y1="34" x2="10" y2="28" stroke="#4f46e5" stroke-width="3" stroke-linecap="round"/>
  <line x1="18" y1="40" x2="9"  y2="38" stroke="#4f46e5" stroke-width="3" stroke-linecap="round"/>
  <line x1="18" y1="46" x2="10" y2="52" stroke="#4f46e5" stroke-width="3" stroke-linecap="round"/>
  <line x1="46" y1="34" x2="54" y2="28" stroke="#4f46e5" stroke-width="3" stroke-linecap="round"/>
  <line x1="46" y1="40" x2="55" y2="38" stroke="#4f46e5" stroke-width="3" stroke-linecap="round"/>
  <line x1="46" y1="46" x2="54" y2="52" stroke="#4f46e5" stroke-width="3" stroke-linecap="round"/>
  <!-- Graduation cap board -->
  <rect x="20" y="9" width="24" height="5" rx="1" fill="#fbbf24"/>
  <!-- Cap top -->
  <polygon points="32,3 44,9 32,12 20,9" fill="#fbbf24"/>
  <!-- Tassel -->
  <line x1="44" y1="9" x2="44" y2="16" stroke="#fbbf24" stroke-width="1.5"/>
  <circle cx="44" cy="17" r="1.5" fill="#fbbf24"/>
</svg>
